<?xml version="1.0" encoding="utf-8"?>
<!-- Generator: Adobe Illustrator 16.0.0, SVG Export Plug-In . SVG Version: 6.00 Build 0)  -->
<!DOCTYPE svg PUBLIC "-//W3C//DTD SVG 1.1//EN" "http://www.w3.org/Graphics/SVG/1.1/DTD/svg11.dtd">
<svg version="1.1" id="Layer_1" xmlns="http://www.w3.org/2000/svg" xmlns:xlink="http://www.w3.org/1999/xlink" x="0px" y="0px"
	 width="612px" height="792px" viewBox="0 0 612 792" enable-background="new 0 0 612 792" xml:space="preserve">
<text transform="matrix(1 0 0 1 185.4429 135.3882)" font-family="'FranklinGothic-MediumCond'" font-size="21">E  S T A B L I S H E D   I N   2 0 1 6 </text>
<text transform="matrix(1 0 0 1 248.4551 202.5376)" font-family="'ScriptMTBold'" font-size="27">Focusing on</text>
<text transform="matrix(1 0 0 1 201.6753 285.8647)"><tspan x="0" y="0" font-family="'FranklinGothic-MediumCond'" font-size="48">INNOVATIVE </tspan><tspan x="-40.863" y="57.6" font-family="'FranklinGothic-MediumCond'" font-size="48">USER INTERFACE</tspan><tspan x="40.863" y="115.2" font-family="'FranklinGothic-MediumCond'" font-size="48">DESIGN</tspan></text>
<g>
	<path d="M312.052,453.642c-7.726,0-13.99,6.264-13.99,13.989s6.264,13.989,13.99,13.989c7.726,0,13.99-6.264,13.99-13.989
		S319.777,453.642,312.052,453.642z M320.161,473.78c-0.494,0.414-1.022,0.703-1.586,0.867s-1.323,0.245-2.278,0.245h-0.904v-4.112
		h0.811c0.478,0,0.814-0.061,1.01-0.182s0.295-0.333,0.295-0.639c0-0.516-0.4-0.772-1.199-0.772h-0.916v-4.266
		c0.877,0,1.315-0.301,1.315-0.901c0-0.555-0.395-0.832-1.186-0.832h-0.881v11.704h-0.09v0.101h-4.677v-0.101v-9.75
		c0-0.615-0.074-1.042-0.22-1.279c-0.146-0.238-0.407-0.357-0.783-0.357c-0.729,0-1.095,0.546-1.095,1.637v1.958h1.349v4.147h-1.349
		v3.745H303.1v-10.001c0-1.936,0.528-3.438,1.584-4.511c1.056-1.071,2.541-1.607,4.453-1.607c0.127,0,1.661-0.067,3.251-0.061
		c1.629,0.008,3.311,0.086,3.311,0.086c3.453,0,5.179,1.356,5.179,4.066c0,1.343-0.591,2.461-1.773,3.351
		c1.715,0.743,2.571,2.066,2.571,3.973C321.675,471.749,321.17,472.913,320.161,473.78z"/>
	<g>
		<g>
			<path d="M312.052,452.437c0.112,0,0.224,0.002,0.336,0.004v-1.216c-0.112-0.002-0.224-0.004-0.336-0.004
				c-8.911,0-16.163,7.103-16.403,15.955h1.216C297.105,458.994,303.812,452.437,312.052,452.437z"/>
			<path d="M312.388,482.82c-0.112,0.003-0.224,0.005-0.336,0.005c-8.135,0-14.777-6.394-15.175-14.43h-1.216
				c0.399,8.707,7.585,15.645,16.392,15.645c0.112,0,0.224-0.002,0.336-0.004V482.82z"/>
		</g>
		<g>
			<path d="M302.059,479.098c-0.084-0.073-0.167-0.148-0.25-0.224l-0.797,0.917c0.083,0.076,0.166,0.15,0.25,0.225
				c6.726,5.846,16.858,5.243,22.848-1.28l-0.918-0.798C317.642,483.954,308.277,484.503,302.059,479.098z"/>
			<path d="M321.74,455.945c0.086,0.072,0.171,0.145,0.256,0.219c6.139,5.336,6.957,14.519,1.986,20.845l0.918,0.799
				c5.411-6.835,4.539-16.784-2.107-22.562c-0.084-0.073-0.171-0.146-0.256-0.217L321.74,455.945z"/>
		</g>
		<path d="M326.777,462.177h0.302c-2.463-6.211-8.523-10.602-15.61-10.602v0.28C318.398,451.855,324.329,456.125,326.777,462.177z"
			/>
	</g>
</g>
<rect x="172.69" y="192.641" width="68" height="3.699"/>
<rect x="386.857" y="192.641" width="68" height="3.699"/>
<rect x="220.477" y="465.781" width="68" height="3.699"/>
<rect x="336.644" y="465.781" width="68" height="3.699"/>
</svg>
